<svg xmlns="http://www.w3.org/2000/svg" width="20" height="20" viewBox="0 0 20 20" shape-rendering="crispEdges">
  <rect width="20" height="20" fill="#c0c0c0"/>
  <rect x="0" y="0" width="20" height="1" fill="#000000"/>
  <rect x="0" y="0" width="1" height="20" fill="#000000"/>
  <rect x="1" y="1" width="18" height="1" fill="#808080"/>
  <rect x="1" y="1" width="1" height="18" fill="#808080"/>
  <rect x="18" y="1" width="1" height="18" fill="#dfdfdf"/>
  <rect x="1" y="18" width="18" height="1" fill="#dfdfdf"/>
  <rect x="19" y="0" width="1" height="20" fill="#ffffff"/>
  <rect x="0" y="19" width="20" height="1" fill="#ffffff"/>
  <rect x="3" y="3" width="14" height="14" fill="#b5b5b5"/>

  <rect x="6" y="6" width="2" height="2" fill="#000000"/>
  <rect x="8" y="8" width="2" height="2" fill="#000000"/>
  <rect x="10" y="10" width="2" height="2" fill="#000000"/>
  <rect x="12" y="12" width="2" height="2" fill="#000000"/>
  <rect x="14" y="14" width="2" height="2" fill="#000000"/>

  <rect x="14" y="6" width="2" height="2" fill="#000000"/>
  <rect x="12" y="8" width="2" height="2" fill="#000000"/>
  <rect x="8" y="12" width="2" height="2" fill="#000000"/>
  <rect x="6" y="14" width="2" height="2" fill="#000000"/>
</svg>

